<svg width="93" height="93" fill="none" xmlns="http://www.w3.org/2000/svg"><path d="M46.499.928C21.37.928.928 21.37.928 46.498c0 25.13 20.444 45.574 45.573 45.574 25.128 0 45.572-20.445 45.572-45.573C92.073 21.37 71.627.928 46.5.928z" fill="#fff"/><path d="M17.063 47.96c.968 1.502 1.245 3.622.225 5.151-.685 1.024-1.87 1.366-3.242 1.546-.596-.924-1.096-1.627-1.581-2.618 1.967-.546 3.692-2.016 4.598-4.077m-1.43-3.4c.02.385-.011.773-.103 1.147v.006c-3.174-1.133-4.655-5.166-2.131-5.115 1.752.036 2.156 2.449 2.236 3.96m-4.284 9.727c-5.283-1.224-8.86-5.908-8.895-11.102-.856 5.853 2.91 11.482 8.775 12.84.61.142 1.216.22 1.815.243l.048.011c1.664 1.81 3.609 3.303 5.902 4.39a28.416 28.416 0 0 1-3.99-4.423c2.04-.164 3.767-1.004 4.77-2.51 1.748-2.62.733-5.198-2.304-6.93 1.01-3.604.04-6.45-3.35-7.502a6.242 6.242 0 0 0-.642-.163l-.362-.039c-.015-.001-.031-.001-.046-.003-3.758-.11-2.081 5.34 2.155 7.668a7.267 7.267 0 0 1-3.365 3.937 28.103 28.103 0 0 1-1.639-16.952 19.475 19.475 0 0 0-1.906 5.146A19.41 19.41 0 0 0 9.78 51.466c-.663.129-1.843.059-2.548-.04-.017-.001-.024.02-.008.029.386.19 1.377.439 1.703.54.414.13.832.212 1.25.251.466.87.756 1.32 1.324 2.074l-.144-.033M75.689 47.96c.904 2.061 2.629 3.532 4.598 4.078-.486.992-.986 1.693-1.582 2.618-1.372-.181-2.559-.523-3.241-1.547-1.019-1.529-.744-3.649.225-5.15m1.43-3.401c.08-1.511.485-3.924 2.236-3.96 2.524-.051 1.042 3.98-2.131 5.115v-.006a3.932 3.932 0 0 1-.103-1.147m4.284 9.727-.144.033c.568-.755.858-1.203 1.324-2.074a6.072 6.072 0 0 0 1.25-.25c.326-.102 1.317-.351 1.702-.541.015-.01.01-.03-.007-.028-.705.098-1.886.168-2.548.039a19.434 19.434 0 0 0 1.461-12.568 19.535 19.535 0 0 0-1.906-5.146c1.26 5.91.57 11.784-1.638 16.952a7.267 7.267 0 0 1-3.365-3.938c4.236-2.326 5.913-7.776 2.155-7.667-.017 0-.032 0-.046.003l-.362.04-.022.003a6.242 6.242 0 0 0-.62.158c-3.393 1.052-4.36 3.9-3.35 7.502-3.04 1.733-4.054 4.312-2.305 6.932 1.004 1.505 2.73 2.345 4.771 2.509a28.416 28.416 0 0 1-3.99 4.422c2.291-1.086 4.237-2.58 5.902-4.389l.048-.01a9.746 9.746 0 0 0 1.815-.244c5.865-1.358 9.63-6.987 8.775-12.84-.035 5.194-3.615 9.878-8.895 11.102" fill="#A64C01"/><path d="M46.5 93C20.86 93 0 72.14 0 46.5 0 20.857 20.86 0 46.5 0c25.639 0 46.498 20.86 46.498 46.5 0 25.639-20.86 46.5-46.499 46.5zm0-92.072C21.37.928.927 21.37.927 46.499c0 25.129 20.444 45.573 45.573 45.573s45.573-20.444 45.573-45.573S71.628.928 46.499.928z" fill="#1D1D1B"/><path d="M68.91 48.703c1.268-12.42-7.77-23.514-20.19-24.782-12.418-1.268-23.514 7.771-24.781 20.19-1.268 12.418 7.77 23.514 20.19 24.782 12.418 1.268 23.513-7.772 24.781-20.19z" fill="#A64C01"/><path fill-rule="evenodd" clip-rule="evenodd" d="m52.942 35.676-.092-.026c.057.019.092.026.092.026z" fill="#F7E19B"/><path d="M59.034 45.363c.173-.303.304-.524.465-.842.74-.024 2.08-.116 3.277-.762 2.256-1.217 3.293-3.65 2.335-5.398-.616-1.126-2.009-1.83-3.372-1.554.08-.717.144-1.533.164-2.275a.455.455 0 0 0 .015-.108c.003-1.078-3.92-1.998-9.273-2.294v-.003s-3.03-.325-7.843.033c-4.87.314-8.343 1.166-8.347 2.179 0 .01 0 .024.002.035h-.019c.069 3.896.995 7.487 2.519 10.402-.004.007.085.026.088.046 7.626 1.609 10.061 6.605 10.548 9.61v.026c11.05.148 17.435-2.483 17.435-5.114 0-2.8-5.747-3.832-7.99-3.983l-.004.002zm.718-2.344.005-.01.163.02a4.955 4.955 0 0 1-.168-.01zm4.11-3.787c.32 1.238-.417 2.59-1.989 3.358a4.328 4.328 0 0 1-1.725.437.089.089 0 0 0 .008-.024 3.543 3.543 0 0 1-.142-.008l.005-.01.137.016c.592-1.68.978-3.155 1.304-4.6.865-.382 2.218.117 2.402.832v-.001zm-14.92-2.61c-6.118-.02-11.075-.95-11.072-2.077.004-.894 3.12-1.643 7.458-1.905 0 0 4.15-.242 7.009.007 4.46.279 7.69 1.06 7.686 1.972-.004 1.127-4.967 2.026-11.083 2.006l.002-.002z" fill="#F7E19B"/><path d="M60.157 43h.027l-.027-.003v.004z" fill="#F7E19B"/><path fill-rule="evenodd" clip-rule="evenodd" d="M46.175 48.252c-1.792-1.493-2.209-1.648-3.904-2.46-2.178-2.678-3.2-8.97-3.2-8.97s1.675.838 5.318 1.046c0 0-.978 5.065 1.785 10.382v.002z" fill="#fff"/><path fill-rule="evenodd" clip-rule="evenodd" d="M48.944 36.625c-6.118-.02-11.076-.95-11.072-2.078.004-.895 3.12-1.644 7.458-1.906 0 0 4.15-.241 7.009.008 4.46.278 7.69 1.06 7.686 1.972-.004 1.127-4.967 2.026-11.083 2.006l.002-.002zM35.595 51.654c2.836.01 5.13 1.241 5.127 2.75-.005 1.51-2.308 2.726-5.144 2.716-2.835-.009-5.13-1.241-5.127-2.75.006-1.51 2.308-2.725 5.144-2.716z" fill="#432918"/><path fill-rule="evenodd" clip-rule="evenodd" d="M57.318 47.62c.067.132.102.269.102.407-.006 1.437-3.295 3.092-7.965 3.077-.314 0-.762-.018-1.072-.035-.258-.516-.61-1.007-.98-1.48.469.026 1.118.047 1.61.049 4.023.013 7.394-.842 8.252-1.997l.051-.02" fill="#fff"/><path fill-rule="evenodd" clip-rule="evenodd" d="M35.62 44.41c-6.615-.295-12.176 3.235-13.652 7.63-.562 1.592-.815 2.763-.562 4.564.69 4.94 5.243 10.147 12.98 10.173 6.623.022 12.198-3.428 13.672-7.825.974-1.354 1.53-2.887 1.535-4.514-.393-3.271-3.83-9.574-13.972-10.028h-.002zm-.024 7.247c2.835.01 5.13 1.242 5.127 2.751-.006 1.51-2.308 2.725-5.144 2.716-2.836-.01-5.131-1.242-5.127-2.75.005-1.51 2.308-2.726 5.143-2.717zM60.016 43l.005-.011.163.02a4.972 4.972 0 0 1-.168-.01z" fill="#CDA046"/><path fill-rule="evenodd" clip-rule="evenodd" d="M29.332 64.309c-6.948-2.131-7.886-8.374-7.592-10.551.337 2.975 1.99 6.92 7.741 8.747 11.963 3.494 17.5-2.969 17.527-2.969.034.173-5.843 8.398-17.676 4.771v.002zm30.684-21.308.005-.01.163.02a4.71 4.71 0 0 1-.168-.01z" fill="#fff"/><path d="m52.718 85.949-.364-.024a22.269 22.269 0 0 0-1.346-.08h-1.702c-.225 0-.677.026-1.344.08l-.366.024.028-.59h.109c.059 0 .114-.006.164-.016.413-.037.688-.114.83-.234.135-.114.205-.323.205-.616v-.063c0-.39-.011-.902-.031-1.53h-4.495c-.02.628-.031 1.14-.031 1.53v.063c0 .293.072.5.212.616.148.122.42.201.812.234.064.011.123.015.184.015h.11l.027.59-.373-.023a21.462 21.462 0 0 0-1.337-.08h-1.701c-.226 0-.678.026-1.345.08l-.373.024.026-.59h.108a.923.923 0 0 0 .172-.016c.402-.037.675-.114.823-.236.14-.116.212-.323.212-.616v-.11c0-1.336.172-2.608.511-3.777A9.947 9.947 0 0 1 44 77.427a8.128 8.128 0 0 1 2.6-2.279l.057-.031.057.031c.775.42 1.463.958 2.048 1.596a9.006 9.006 0 0 1 1.469 2.186c.391.812.684 1.687.87 2.6.187.911.281 1.87.281 2.852v.11c0 .294.068.5.203.613.142.118.419.2.821.238.061.011.114.015.174.015h.108l.028.59h.002zm-8.249-4.1h4.369a14.275 14.275 0 0 0-.286-2.017c-.139-.62-.303-1.138-.489-1.544a4.59 4.59 0 0 0-.644-1.042 4.971 4.971 0 0 0-.762-.725c-.609.446-1.096 1.066-1.448 1.843-.36.793-.609 1.965-.74 3.487v-.002zM35.843 18.618l-.318.179c-.588.323-.981.548-1.17.671l-1.422.932c-.188.124-.551.393-1.081.803l-.291.22-.301-.51.09-.059a.952.952 0 0 0 .13-.101c.326-.257.512-.473.566-.652.05-.17-.006-.382-.168-.627l-.035-.053c-.212-.325-.504-.75-.864-1.264l-3.76 2.46c.327.536.6.971.812 1.298l.035.053c.16.246.334.38.515.399.19.02.461-.063.808-.25a.963.963 0 0 0 .162-.086l.09-.059.348.48-.325.184c-.58.318-.97.54-1.163.666l-1.422.932c-.188.124-.552.393-1.081.803l-.299.225-.3-.51.09-.059c.055-.035.1-.072.136-.105.317-.25.502-.466.56-.65.053-.173 0-.385-.161-.63l-.061-.092a13.519 13.519 0 0 1-1.64-3.44 9.96 9.96 0 0 1-.438-3.51 8.122 8.122 0 0 1 .926-3.33l.032-.06.064-.005c.879-.072 1.75 0 2.587.212a9.093 9.093 0 0 1 2.426 1.024 11.21 11.21 0 0 1 2.153 1.697c.655.66 1.26 1.412 1.797 2.233l.061.092c.16.245.33.38.506.4.184.023.46-.062.817-.25a.96.96 0 0 0 .155-.084l.09-.059.347.48-.003.002zm-9.146 1.088 3.655-2.392a14.1 14.1 0 0 0-1.345-1.532c-.456-.443-.878-.786-1.255-1.024a4.47 4.47 0 0 0-1.11-.518 4.798 4.798 0 0 0-1.035-.188c-.264.706-.332 1.492-.201 2.334.133.86.568 1.977 1.291 3.322v-.002zM43.476 17.621c-1.081.104-2.102-.018-3.033-.365-.936-.347-1.712-.895-2.307-1.63-.596-.733-.946-1.62-1.044-2.632a5.223 5.223 0 0 1 .234-2.153 5.637 5.637 0 0 1 1.069-1.891 5.807 5.807 0 0 1 1.762-1.391 6.267 6.267 0 0 1 2.29-.657 7.333 7.333 0 0 1 1.457-.015c.396.044.817.116 1.252.21.523.115.739.128.829.12a.442.442 0 0 0 .242-.085l.145-.12.421 2.993-.566.055-.024-.083c-.152-.498-.35-.89-.587-1.167-.234-.273-.576-.47-1.015-.587-.446-.118-1.037-.144-1.756-.074a3.161 3.161 0 0 0-1.744.72 3.653 3.653 0 0 0-1.11 1.632 5.056 5.056 0 0 0-.244 2.183c.109.768.375 1.448.786 2.018a3.786 3.786 0 0 0 3.454 1.582c.61-.06 1.12-.2 1.513-.417l-.194-2.015c-.028-.286-.113-.484-.255-.585-.147-.107-.41-.162-.776-.16a1.067 1.067 0 0 0-.172 0l-.101.009-.083-.598h.352a17.099 17.099 0 0 0 1.255-.039l1.415-.136a19.1 19.1 0 0 0 1.241-.2l.336-.068.033.604-.101.009a.895.895 0 0 0-.152.027c-.38.078-.629.183-.748.312-.115.124-.16.332-.131.62l.256 2.675-.057.035c-.29.174-.812.404-1.55.687-.744.284-1.614.476-2.588.57l-.004.007zM51.364 17.3l.198-.557.097.03a.701.701 0 0 0 .15.031c.374.078.644.08.812.004.158-.072.284-.25.37-.53l2.225-7.2c.087-.28.085-.499-.003-.646-.094-.155-.318-.307-.666-.45a.872.872 0 0 0-.152-.063l-.097-.03.15-.572.326.126c.575.232.968.382 1.171.444l5.963 1.842-.448 2.588-.519-.16.004-.081c.017-.38.007-.657-.026-.818a.48.48 0 0 0-.197-.319c-.116-.08-.347-.179-.687-.293l-2.483-.8-.753 2.438 3.48 1.076-.388 1.25-3.48-1.075-.805 2.609c-.089.288-.139.492-.146.607-.006.086.02.145.085.19.059.04.195.109.507.206l1.495.462c.354.108.649.162.874.156.22-.005.42-.062.602-.171a7.79 7.79 0 0 0 .804-.602l.04-.033.646.146-.144.136c-.25.239-.459.488-.62.739a7.691 7.691 0 0 0-.481.887 7 7 0 0 1-.341.666l-.047.07-1.003-.356a66.08 66.08 0 0 0-1.452-.489l-3.508-1.083a17.813 17.813 0 0 0-1.215-.293l-.342-.08.004-.001zM68.258 26.677l-.062-.06a88.956 88.956 0 0 0-.598-.553c-.225-.207-.69-.625-1.393-1.258a115.581 115.581 0 0 0-1.367-1.214l-1.54-1.321c-.165-.14-.5-.393-.999-.753l-.28-.209.404-.431.077.066a.717.717 0 0 0 .126.089c.313.221.559.328.743.326.175-.002.36-.116.55-.34l4.906-5.72c.192-.224.276-.423.254-.595-.024-.179-.17-.407-.431-.677a.77.77 0 0 0-.115-.118l-.077-.066.365-.465.25.243c.434.443.737.737.898.875l1.54 1.321c.166.142.504.397 1.006.758l.28.209-.404.431-.077-.066a.795.795 0 0 0-.133-.094c-.312-.22-.557-.327-.738-.323-.174.004-.358.118-.548.341l-4.32 5.037c-.195.229-.32.397-.374.5-.04.078-.039.142.002.209.039.06.136.179.384.39l1.151.988c.317.271.566.457.74.553.164.09.347.137.544.135.209 0 .542-.046.99-.13l.88-.193.56.48-.205.046a4.802 4.802 0 0 0-.91.306 8.287 8.287 0 0 0-.763.388c-.21.123-.44.273-.681.444-.244.174-.432.309-.568.4l-.07.049.003.002zM71.859 32.26a5.733 5.733 0 0 1-.526-1.03 8.246 8.246 0 0 1-.295-.941c-.07-.292-.133-.552-.19-.777l-.015-.063 2.083-1.835.352.555-.059.061c-.557.566-.889 1.114-.983 1.627-.094.508.03 1.032.363 1.556.31.487.668.8 1.067.933.395.131.782.07 1.184-.186.371-.234.604-.587.714-1.072.113-.496.131-1.233.054-2.185-.057-.787.027-1.51.253-2.15.227-.65.596-1.141 1.094-1.458.468-.3.955-.447 1.446-.441a2.6 2.6 0 0 1 1.41.45c.439.29.835.71 1.179 1.249.155.243.278.474.367.686.088.209.168.417.234.618.067.2.151.428.25.689.095.252.195.46.296.62l.048.077-1.762 1.544-.278-.437.04-.057c.388-.56.576-1.072.557-1.522a2.624 2.624 0 0 0-.418-1.305c-.237-.37-.526-.605-.864-.695a1.147 1.147 0 0 0-.963.156c-.173.111-.304.288-.39.524-.088.25-.136.532-.145.842a18.3 18.3 0 0 0 .019 1.184c.057.707.055 1.338-.002 1.877a3.817 3.817 0 0 1-.45 1.465c-.242.43-.606.8-1.08 1.103-.426.271-.93.39-1.498.358-.563-.034-1.127-.225-1.677-.569-.55-.343-1.026-.828-1.415-1.442v-.01zM77.478 71.847a5.603 5.603 0 0 1-.834.8c-.278.215-.553.401-.815.556-.26.152-.49.288-.688.406l-.056.033-2.36-1.465.43-.498.074.04c.703.37 1.323.529 1.841.47.513-.058.978-.325 1.386-.797.376-.438.574-.871.585-1.29.011-.415-.159-.77-.52-1.08-.332-.285-.737-.407-1.233-.372-.507.035-1.218.23-2.107.58-.738.281-1.456.41-2.133.38-.688-.03-1.263-.24-1.71-.628-.42-.364-.703-.786-.84-1.257a2.595 2.595 0 0 1 .025-1.48c.15-.503.437-1.005.854-1.488.188-.22.373-.404.55-.55.175-.146.35-.28.524-.404.171-.122.367-.267.586-.437.214-.166.384-.321.508-.463l.059-.069 1.987 1.242-.338.393-.066-.022c-.648-.21-1.192-.242-1.618-.094-.432.15-.81.411-1.128.779-.286.332-.426.678-.417 1.027.01.35.15.637.428.876.157.135.364.209.615.222.264.013.548-.022.847-.103.306-.085.686-.205 1.127-.36a10.21 10.21 0 0 1 1.797-.54 3.814 3.814 0 0 1 1.531.007c.482.107.943.347 1.368.714.381.33.643.776.774 1.33.131.55.111 1.144-.059 1.77-.17.623-.496 1.22-.972 1.772h-.002zM19.158 35.093l-.485-.337.055-.087a.74.74 0 0 0 .07-.136c.174-.342.246-.602.218-.783-.027-.171-.166-.34-.413-.496l-6.362-4.042c-.247-.157-.457-.214-.623-.168-.175.05-.38.225-.61.524a.752.752 0 0 0-.102.13l-.056.087-.505-.291 2.885-4.572a4.935 4.935 0 0 1 1.157-1.291c.435-.332.887-.528 1.34-.582.457-.055.898.05 1.31.312a2.1 2.1 0 0 1 .658.672c.17.275.28.59.328.94.034.248.034.495 0 .737.541-.419 1.098-.675 1.663-.766a2.578 2.578 0 0 1 1.826.384 3.07 3.07 0 0 1 1.087 1.184c.26.497.352 1.09.273 1.77-.077.673-.367 1.408-.86 2.183-.2.315-.361.56-.826 1.28-.465.72-.99 1.531-1.26 1.946-.115.181-.318.55-.602 1.094l-.166.309zm-2.515-5.942 2.161 1.372c.328.209.596.353.792.427.18.068.335.083.463.044a.83.83 0 0 0 .376-.271c.13-.153.13-.126.338-.452.22-.347.343-.716.367-1.096a2.032 2.032 0 0 0-.216-1.06 1.997 1.997 0 0 0-.718-.783c-.505-.321-1.026-.421-1.546-.3-.522.123-.974.48-1.343 1.062l-.674 1.059v-.002zm-.998-.635.628-.989c.269-.424.361-.812.27-1.151a1.299 1.299 0 0 0-.582-.799c-.46-.291-.878-.367-1.28-.23-.405.138-.65.27-1.069.927a8.343 8.343 0 0 0-.396.696l2.43 1.544v.002zM69.563 78.899l-.317.125c-.585.224-.978.384-1.166.475l-1.554.747c-.19.092-.559.299-1.096.616l-.302.173-.234-.542.092-.044a.757.757 0 0 0 .14-.083c.323-.196.518-.379.59-.546.069-.161.037-.377-.09-.64l-2.898-6.017-3.128 2.234 2.615 5.426c.127.264.276.423.444.469.177.05.441.01.784-.118a.83.83 0 0 0 .16-.061l.093-.044.279.522-.323.129c-.578.22-.97.38-1.17.476l-1.601.771c-.194.094-.563.3-1.093.613l-.304.173-.234-.542.092-.045a.683.683 0 0 0 .131-.08c.328-.197.526-.381.598-.549.068-.16.037-.376-.09-.64l-3.272-6.79c-.127-.263-.277-.422-.443-.47-.173-.05-.44-.01-.793.123a.815.815 0 0 0-.155.058l-.092.044-.279-.522.323-.13c.58-.22.97-.38 1.16-.47l1.879-.904.522 1.083 4.802-3.65c.187-.09.556-.296 1.098-.615l.297-.17.235.544-.093.044a.688.688 0 0 0-.13.08c-.33.197-.525.38-.593.548-.066.16-.035.374.092.64l3.272 6.79c.127.263.276.422.444.468.177.05.441.01.784-.118a.808.808 0 0 0 .155-.057l.093-.044.278.522-.002-.002zM26.203 80.714l.258-.522.093.04c.05.023.097.04.143.049.358.12.62.153.794.098.164-.052.306-.21.424-.475l3.017-6.776c.118-.264.142-.476.072-.631-.072-.162-.275-.338-.598-.519a.844.844 0 0 0-.142-.079l-.092-.04.213-.541.303.16c.535.296.902.488 1.092.572l5.61 2.498-.74 2.478-.488-.218.013-.079c.06-.369.083-.64.07-.802a.473.473 0 0 0-.155-.334c-.105-.09-.319-.214-.636-.368l-2.334-1.071-1.022 2.295 3.275 1.457-.524 1.177-3.275-1.457-1.093 2.454c-.12.27-.192.465-.212.575-.016.085.004.146.061.196.054.046.18.13.472.26l1.406.626c.334.149.617.234.838.254.214.02.419-.013.609-.098.197-.088.487-.256.856-.494l.042-.028.615.218-.157.116a3.912 3.912 0 0 0-.692.65c-.19.232-.384.505-.576.81-.199.319-.334.518-.411.61l-.054.063-.939-.465a65.333 65.333 0 0 0-1.361-.648l-3.301-1.468c-.194-.087-.583-.23-1.155-.43l-.323-.118.004.005zM13.932 69.702l.444-.377.069.074c.036.04.073.074.112.102.28.252.51.385.688.405.172.019.366-.072.578-.267l5.457-5.022c.212-.196.32-.382.317-.552-.001-.179-.117-.419-.343-.712a.882.882 0 0 0-.097-.13l-.069-.073.406-.406 3.614 3.904c.418.454.733.934.936 1.428.205.498.277.978.212 1.42-.064.45-.277.842-.629 1.167-.229.21-.5.363-.804.456a2.358 2.358 0 0 1-.978.073 2.755 2.755 0 0 1-.701-.186c.262.62.363 1.216.304 1.775a2.54 2.54 0 0 1-.828 1.64 3.024 3.024 0 0 1-1.402.732c-.537.122-1.128.058-1.753-.19-.62-.245-1.246-.706-1.856-1.372-.25-.271-.443-.485-1.008-1.113-.564-.625-1.204-1.33-1.531-1.692-.142-.155-.441-.44-.887-.85l-.25-.236-.001.002zm6.29-.882-1.855 1.704c-.282.26-.485.476-.607.644-.11.155-.164.3-.16.43a.806.806 0 0 0 .162.426c.112.163.085.155.345.436.273.297.594.509.95.627a1.985 1.985 0 0 0 1.989-.42c.434-.4.66-.868.677-1.395.017-.528-.208-1.048-.668-1.548l-.836-.908.002.004zm.857-.788.78.849c.336.363.681.55 1.026.55.353 0 .65-.115.908-.351.395-.364.572-.742.544-1.16-.03-.421-.092-.687-.612-1.252a7.411 7.411 0 0 0-.338-.343c-.083-.08-.159-.15-.223-.21l-2.085 1.917z" fill="#1D1D1B"/></svg>